<?xml version="1.0" encoding="UTF-8" standalone="no"?>
<svg
   xmlns:dc="http://purl.org/dc/elements/1.1/"
   xmlns:cc="http://creativecommons.org/ns#"
   xmlns:rdf="http://www.w3.org/1999/02/22-rdf-syntax-ns#"
   xmlns:svg="http://www.w3.org/2000/svg"
   xmlns="http://www.w3.org/2000/svg"
   viewBox="0 0 1122.52 793.70667"
   height="793.70667"
   width="1122.52"
   xml:space="preserve"
   id="svg2"
   version="1.1"><metadata
     id="metadata8"><rdf:RDF><cc:Work
         rdf:about=""><dc:format>image/svg+xml</dc:format><dc:type
           rdf:resource="http://purl.org/dc/dcmitype/StillImage" /></cc:Work></rdf:RDF></metadata><defs
     id="defs6"><clipPath
       id="clipPath18"
       clipPathUnits="userSpaceOnUse"><path
         id="path16"
         d="M 0,595.28 H 841.89 V 0 H 0 Z" /></clipPath></defs><g
     transform="matrix(1.3333333,0,0,-1.3333333,0,793.70667)"
     id="g10"><g
       id="g12"><g
         clip-path="url(#clipPath18)"
         id="g14"><g
           transform="translate(346.2334,329.6609)"
           id="g20"><path
             id="path22"
             style="fill:#3baa3e;fill-opacity:1;fill-rule:nonzero;stroke:none"
             d="m 0,0 c -5.034,0 -9.114,-4.083 -9.114,-9.117 0,-5.036 4.08,-9.118 9.114,-9.118 5.036,0 9.118,4.082 9.118,9.118 C 9.118,-4.083 5.036,0 0,0" /></g><g
           transform="translate(436.29,330.6125)"
           id="g24"><path
             id="path26"
             style="fill:#3baa3e;fill-opacity:1;fill-rule:nonzero;stroke:none"
             d="m 0,0 c -5.421,0 -9.817,-4.396 -9.817,-9.819 0,-5.422 4.396,-9.816 9.817,-9.816 5.421,0 9.817,4.394 9.817,9.816 C 9.817,-4.396 5.421,0 0,0" /></g><g
           transform="translate(521.2451,296.8635)"
           id="g28"><path
             id="path30"
             style="fill:#3baa3e;fill-opacity:1;fill-rule:nonzero;stroke:none"
             d="m 0,0 c 0,0 0.224,-22.73 -22.869,-22.73 h -7.028 v 14.727 h 4.239 c 0,0 9.704,-0.893 9.593,14.056 0,0 -1.897,-6.053 -15.508,-6.053 0,0 -19.299,1.391 -19.299,20.221 v 7.14 c 0,0 0.446,19.523 21.643,21.086 0,0 8.365,0.892 13.498,-6.025 v 4.797 H 0 Z m -84.955,0 c -14.357,0 -25.995,10.714 -25.995,23.93 0,13.217 11.638,23.93 25.995,23.93 14.356,0 25.993,-10.713 25.993,-23.93 C -58.962,10.714 -70.599,0 -84.955,0 m -36.76,46.438 V 1.702 h -15.508 v 44.29 c 0,6.024 -7.474,7.698 -7.474,7.698 v 15.619 c 24.768,-1.004 22.982,-22.871 22.982,-22.871 m -27.891,-24.767 c -0.11,-21.037 -21.866,-21.643 -21.866,-21.643 -8.413,0 -13.164,5.578 -13.164,5.578 V 1.813 h -15.843 v 65.338 c -0.064,0.011 -0.071,0.024 0,0.038 v -0.038 c 0.983,-0.158 15.843,0.038 15.843,0.038 v -24.99 c 3.726,6.353 14.503,6.248 14.503,6.248 23.458,-2.187 20.527,-26.776 20.527,-26.776 M -3.436,123.417 H -197.37 c -19.564,0 -35.42,-15.858 -35.42,-35.42 V -27.101 c 0,-19.564 15.856,-35.421 35.42,-35.421 h 68.496 l 23.298,-54.89 c 0,0 1.603,-4.757 5.487,-4.757 3.885,0 5.486,4.757 5.486,4.757 l 23.297,54.89 h 67.87 c 19.563,0 35.42,15.857 35.42,35.421 V 87.997 c 0,19.562 -15.857,35.42 -35.42,35.42" /></g><g
           transform="translate(496.5889,330.3884)"
           id="g32"><path
             id="path34"
             style="fill:#3baa3e;fill-opacity:1;fill-rule:nonzero;stroke:none"
             d="m 0,0 c -5.299,0 -9.593,-4.295 -9.593,-9.595 0,-5.299 4.294,-9.593 9.593,-9.593 5.299,0 9.595,4.294 9.595,9.593 C 9.595,-4.295 5.299,0 0,0" /></g></g></g></g></svg>